<?xml version="1.0" encoding="UTF-8" standalone="no"?>
<!-- Created with Inkscape (http://www.inkscape.org/) -->

<svg
   version="1.1"
   id="svg1"
   width="32"
   height="32"
   viewBox="0 0 32 32"
   sodipodi:docname="logo_sin_letras.svg"
   inkscape:export-filename="alturia_isologo.png"
   inkscape:export-xdpi="96"
   inkscape:export-ydpi="96"
   inkscape:version="1.4.2 (f4327f4, 2025-05-13)"
   xmlns:inkscape="http://www.inkscape.org/namespaces/inkscape"
   xmlns:sodipodi="http://sodipodi.sourceforge.net/DTD/sodipodi-0.dtd"
   xmlns="http://www.w3.org/2000/svg"
   xmlns:svg="http://www.w3.org/2000/svg">
  <defs
     id="defs1" />
  <sodipodi:namedview
     id="namedview1"
     pagecolor="#040404"
     bordercolor="#000000"
     borderopacity="0.15686275"
     inkscape:showpageshadow="2"
     inkscape:pageopacity="0.0"
     inkscape:pagecheckerboard="true"
     inkscape:deskcolor="#d1d1d1"
     inkscape:zoom="22.596673"
     inkscape:cx="13.674579"
     inkscape:cy="16.174947"
     inkscape:window-width="1920"
     inkscape:window-height="991"
     inkscape:window-x="-9"
     inkscape:window-y="-9"
     inkscape:window-maximized="1"
     inkscape:current-layer="g1" />
  <g
     inkscape:groupmode="layer"
     inkscape:label="Image"
     id="g1">
    <path
       id="path1"
       style="fill:#ffffff;stroke-width:0.0429168"
       d="m 15.973348,10.115737 -0.07617,0.125 c -0.04143,0.06884 -0.748444,1.259614 -1.572265,2.646485 -1.201876,2.023313 -1.461824,2.44377 -1.53711,2.455078 h -0.002 -0.002 -0.0039 -0.002 v -0.002 h -0.002 -0.002 l -0.002,-0.002 -0.002,-0.002 -0.002,-0.002 C 12.736773,15.29287 12.496,14.901837 12.2347,14.46516 c -0.2613,-0.43668 -0.498223,-0.820013 -0.527344,-0.851563 -0.0013,-0.0014 -0.0046,-0.0045 -0.0059,-0.0059 l -0.002,-0.002 c -7.54e-4,-3.67e-4 -0.0051,-0.0017 -0.0059,-0.002 h -0.002 l -0.002,-0.002 c -8.42e-4,-4.9e-5 -0.005,-3.6e-5 -0.0059,0 h -0.002 c -0.04793,0.01078 -0.13589,0.140526 -0.347657,0.503907 -0.176583,0.303007 -0.771303,1.304045 -1.320312,2.224609 -1.613565,2.705598 -3.2604154,5.499539 -3.2636718,5.537109 8.807e-4,0.01642 0.5659734,0.02023 1.2558594,0.0098 1.6321553,-0.02533 2.0629114,-0.100787 3.2441404,-0.572266 0.889892,-0.355196 1.705884,-0.791845 3.632812,-1.945312 1.532704,-0.917477 2.630497,-1.420846 3.529297,-1.617188 0.47636,-0.103996 1.434615,-0.102922 1.835938,0.002 1.16956,0.304535 1.716011,0.807351 2.695312,2.476562 0.368814,0.628645 0.402448,0.569073 -0.298828,0.539062 -0.680796,-0.02912 -1.005547,-0.111684 -1.371093,-0.351562 -0.29264,-0.193208 -0.443268,-0.389421 -0.953126,-1.253906 l -0.435546,-0.736328 -0.199219,-0.03125 c -0.216067,-0.0324 -0.852677,0.0055 -0.996094,0.05859 -0.0068,0.0025 -0.0162,0.0065 -0.02148,0.0098 l -0.002,0.002 c -7.34e-4,8.34e-4 -0.0033,0.005 -0.0039,0.0059 -2.86e-4,4.91e-4 -0.0031,0.0046 -0.0039,0.0059 -0.02036,0.0602 0.08221,0.249774 0.509766,0.984375 0.312066,0.536175 0.653856,1.093072 0.759765,1.238281 0.349407,0.479063 0.935747,0.864498 1.63086,1.072266 0.304331,0.09096 0.413185,0.09667 2.005859,0.113281 0.926468,0.0097 1.685547,0.0094 1.685547,-0.002 0,-0.04659 -1.86832,-3.162354 -2.050781,-3.419922 -0.613571,-0.866136 -1.531018,-1.506417 -2.5625,-1.789063 -0.394497,-0.108114 -0.492834,-0.11784 -1.222657,-0.11914 -0.907195,-0.0017 -1.190692,0.04428 -2.060546,0.332031 -0.736091,0.243506 -1.773342,0.772129 -3.476563,1.771485 -1.553495,0.911507 -2.832817,1.565119 -3.470703,1.77539 -0.4976722,0.164049 -1.1700511,0.304688 -1.4628905,0.304688 H 8.7233484 l 0.140625,-0.251954 c 0.3145875,-0.556432 2.8052416,-4.683593 2.8261716,-4.683593 0.01238,0 0.261977,0.403596 0.556641,0.898437 0.294661,0.494845 0.549606,0.901358 0.566406,0.902344 0.0168,8.45e-4 0.170055,-0.236238 0.339844,-0.525391 0.934628,-1.591609 1.54735,-2.605468 1.574218,-2.605468 0.01672,0 0.300697,0.450515 0.63086,1.001953 l 0.601562,1.001953 0.02148,-2.052735 0.02148,-2.052734 1.068359,1.78125 c 0.714356,1.190804 1.087151,1.776229 1.125,1.761719 0.07233,-0.02775 0.705994,-0.108857 0.966797,-0.123047 l 0.199219,-0.0098 -1.550781,-2.597656 c -0.853369,-1.428435 -1.616602,-2.700271 -1.695313,-2.828125 z" />
  </g>
</svg>
